# xmcd
# 
# Track frame offsets:
#     182
#     18775
#     33175
#     42857
#     65580
#     91972
#     105797
#     121455
#     143987
#     157555
#     172377
#     188835
#     200610
#     212750
#     223777
#     236520
#     249642
#     259895
#     278130
#     294685
# 
# Disc length: 4036
# 
# Revision: 1
# Processed by: cddbd v1.5.2PL0 Copyright (c) Steve Scherf et al.
# Submitted via: fre:ac v1.0.27
# 
DISCID=240fc214
DTITLE=Various Artist - Jazz Jamboree Disc 2
DYEAR=1995
DGENRE=Jazz
TTITLE0=Acker Bilk - South Rampart Street Parade
TTITLE1=Chris Barber - Bill Bailey, Won`t You Please Come Home
TTITLE2=Kenny Ball - Heartaches
TTITLE3=Acker Bilk - Gee Baby, Ain`t I Good To You
TTITLE4=Chris Barber - April Showers
TTITLE5=Kenny Ball - Temptation Rag
TTITLE6=Acker Bilk - Delia`s Gone
TTITLE7=Chris Barber - You Rascal You
TTITLE8=Kenny Ball - Black And Tan Fantasy
TTITLE9=Acker Bilk - Marching Through Georgia
TTITLE10=Chris Barber - Hushabye
TTITLE11=Kenny Ball - Dark Eyes
TTITLE12=Acker Bilk - El Abanico
TTITLE13=Chris Barber - Bye And Bye
TTITLE14=Kenny Ball - The Green Leaves Of Summer
TTITLE15=Acker Bilk - Under The Double Eagle
TTITLE16=Chris Barber - Tuxedo Rag
TTITLE17=Kenny Ball - Basin Street Blues
TTITLE18=Acker Bilk - Dardanella
TTITLE19=Chris Barber - Brown Skin Mama
EXTD=YEAR: 1995
EXTT0=
EXTT1=
EXTT2=
EXTT3=
EXTT4=
EXTT5=
EXTT6=
EXTT7=
EXTT8=
EXTT9=
EXTT10=
EXTT11=
EXTT12=
EXTT13=
EXTT14=
EXTT15=
EXTT16=
EXTT17=
EXTT18=
EXTT19=
PLAYORDER=
